<svg width="360" height="343" viewBox="0 0 360 343" fill="none" xmlns="http://www.w3.org/2000/svg">
<path d="M355.693 0.011547C270.713 0.00154701 185.733 -0.00845299 100.763 0.011547C87.4429 0.011547 74.5829 2.66154 62.3329 7.85154C22.1229 24.8715 -1.65712 65.8416 2.82288 110.082C7.05288 151.812 40.0129 187.232 82.4029 195.662C89.3329 197.042 96.1029 197.632 102.703 197.512C102.703 197.272 102.703 197.032 102.703 196.782C102.703 195.832 102.703 194.882 102.683 193.942L102.553 145.702C102.603 145.312 102.613 144.912 102.623 144.522C102.633 139.072 102.593 116.842 103.143 111.402C103.973 103.032 105.453 94.8315 109.053 87.1315C111.963 80.8915 115.983 75.4615 121.033 70.8016C129.273 63.1916 139.003 58.6515 150.023 56.7715C155.473 55.8415 160.953 55.3216 166.493 55.3616C173.683 55.4016 180.873 55.3316 188.063 55.3916C190.263 55.4116 192.273 54.9115 194.203 53.9015C196.963 52.4615 199.393 50.6015 201.553 48.3715C204.313 45.5215 207.633 43.6615 211.423 42.5215C213.643 41.8515 215.883 41.6416 218.193 41.5816C222.113 41.4816 225.893 42.0015 229.563 43.4015C240.583 47.5915 246.963 55.5815 249.023 67.1215C249.953 72.3415 249.623 77.7215 247.983 82.7615C245.863 89.2615 242.233 94.6916 236.333 98.3915C232.463 100.812 228.243 102.272 223.693 102.702C222.673 102.802 221.653 103.082 220.643 103.062C215.773 102.972 211.073 102.132 206.783 99.6615C204.573 98.3915 202.623 96.8015 201.103 94.7215C200.173 93.4415 199.243 92.1615 198.213 90.9715C195.413 87.7215 192.023 85.3215 187.863 84.1215C187.063 83.8915 185.713 83.7315 184.873 83.7215C180.373 83.6815 175.853 83.5015 171.373 83.7915C166.873 84.0915 162.373 83.9915 157.883 84.2415C151.813 84.5815 146.033 86.0216 140.943 89.5516C135.153 93.5616 131.533 99.0116 129.983 105.862C129.303 108.882 129.103 111.972 129.103 115.042C129.053 136.482 129.033 166.762 129.013 193.052C139.613 189.572 149.673 184.152 159.123 177.052C179.313 161.902 197.813 144.462 216.823 127.762C248.273 100.122 279.543 72.2715 310.873 44.5015C325.983 31.1115 341.073 17.7116 357.023 3.55156C358.403 2.33156 357.543 0.0515458 355.693 0.0415458V0.011547Z" fill="#4252FF"/>
<path d="M328.443 169.412C296.133 137.782 247.443 132.592 207.673 157.972C192.783 167.472 179.403 179.502 166.063 191.212C153.693 202.062 141.353 212.932 129.033 223.822C129.113 228.442 129.363 233.112 129.893 237.712C130.103 239.562 130.303 241.542 130.723 243.442C131.383 246.402 132.583 249.162 135.243 250.942C137.993 252.772 141.083 253.712 144.303 254.202C146.793 254.582 149.313 254.802 151.813 255.082C152.063 255.112 152.313 255.122 152.563 255.112C155.543 255.012 158.513 254.812 161.503 254.812C165.453 254.812 169.433 254.612 173.363 254.912C177.473 255.232 181.573 255.202 185.673 255.122C188.973 255.062 192.293 254.792 195.533 254.082C200.183 253.072 204.273 250.932 207.783 247.712C208.423 247.122 209.033 246.502 209.663 245.902C213.623 242.102 218.343 240.042 223.813 239.472C231.473 238.662 238.363 240.692 244.633 244.922C250.813 249.082 254.513 255.062 256.313 262.192C258.763 271.922 257.203 281.012 251.453 289.262C247.323 295.192 241.473 298.542 234.493 300.052C230.913 300.822 227.263 301.002 223.673 300.472C217.333 299.542 211.863 296.912 208.123 291.412C206.843 289.532 205.343 287.812 203.623 286.322C199.903 283.112 195.673 281.102 190.763 281.092C183.973 281.072 177.163 280.862 170.393 281.242C163.203 281.652 156.013 281.682 148.843 281.502C141.173 281.312 133.623 280.142 126.523 276.912C118.943 273.462 113.753 267.542 110.213 260.522C107.803 255.732 106.153 250.432 105.033 245.052C80.6528 266.662 56.3028 288.302 31.9228 309.912C21.7828 318.902 11.6728 327.922 0.902813 337.512C-0.917187 339.132 0.192803 342.192 2.6428 342.192H2.69282C88.3528 342.212 174.003 342.542 259.663 342.052C297.143 341.842 326.493 325.052 345.733 292.872C370.053 252.202 362.653 202.882 328.453 169.402L328.443 169.412Z" fill="#4252FF"/>
</svg>
